<svg viewBox="0 -8 34 48" xmlns="http://www.w3.org/2000/svg"><g fill="none" fill-rule="evenodd"><path d="M0-7h34v48H0z"/><path d="M32.577 5.065C32.25 4.9 24.582 1 21.627 1c-.294 0-.556.2-.64.484-.026.09-.677 2.177-4.017 2.177-3.34 0-3.991-2.087-4.016-2.17A.663.663 0 0 0 12.312 1C9.358 1 1.69 4.899 1.363 5.065a.663.663 0 0 0-.35.723l1.33 6.654c.068.325.363.55.694.533.292-.017 2.308-.146 3.745-.414-.482 2.533-.471 4.434-.462 6.28l.003.79c0 2.443 1.297 7.286 1.353 7.491a.665.665 0 0 0 .643.493 4.663 4.663 0 0 1 4.657 4.657c0 .368.298.666.666.666h6.653a.666.666 0 0 0 .666-.666 4.663 4.663 0 0 1 4.657-4.657.667.667 0 0 0 .643-.493c.055-.205 1.354-5.048 1.354-7.492l.005-.789c.01-1.846.018-3.747-.462-6.28 1.436.268 3.453.397 3.745.414a.686.686 0 0 0 .693-.533l1.33-6.654a.666.666 0 0 0-.35-.723h.001z" fill="#F2F2F2" fill-rule="nonzero"/><path d="M5.586 13.537c-.87.105-1.744.185-2.62.238a1.572 1.572 0 0 1-1.605-1.257L.031 5.864a1.563 1.563 0 0 1 .823-1.7 79.659 79.659 0 0 1 4.544-2.12C8.4.758 10.748-.001 12.212-.001c.709 0 1.33.475 1.502 1.127.05.165.201.432.511.715.555.506 1.4.82 2.645.82 1.246 0 2.09-.314 2.644-.82.31-.284.464-.556.51-.713A1.575 1.575 0 0 1 21.528 0c1.463 0 3.812.759 6.814 2.043a79.664 79.664 0 0 1 4.544 2.12c.624.32.961 1.015.823 1.701l-1.33 6.654c-.152.76-.85 1.282-1.63 1.256a44.92 44.92 0 0 1-2.596-.237c.23 1.567.278 2.935.267 5.21l-.005.783c0 .83-.132 1.918-.367 3.218-.096.53-.207 1.085-.331 1.657a61.51 61.51 0 0 1-.687 2.853 1.567 1.567 0 0 1-1.512 1.157 3.763 3.763 0 0 0-3.757 3.757c0 .865-.701 1.566-1.565 1.566h-6.654a1.566 1.566 0 0 1-1.566-1.566 3.763 3.763 0 0 0-3.757-3.757 1.564 1.564 0 0 1-1.511-1.156 61.444 61.444 0 0 1-.71-2.954c-.423-1.97-.675-3.62-.675-4.772l-.003-.787c-.011-2.282.037-3.647.266-5.21v.001zM30.655 5.07a77.893 77.893 0 0 0-3.021-1.373c-2.637-1.128-4.767-1.83-5.94-1.893-.155.416-.457.9-.966 1.366-.892.815-2.172 1.29-3.858 1.29-1.685 0-2.965-.474-3.858-1.289-.504-.46-.8-.933-.966-1.367-1.171.063-3.302.764-5.94 1.893a77.888 77.888 0 0 0-4.275 1.989l1.255 6.277c.328-.022.754-.055 1.21-.098.85-.08 1.617-.177 2.221-.29l1.295-.24-.246 1.294c-.386 2.03-.46 3.357-.446 6.091l.003.81c0 .99.237 2.544.635 4.396.227 1.055.475 2.065.641 2.69a5.564 5.564 0 0 1 5.373 5.32h6.194a5.564 5.564 0 0 1 5.371-5.32c.363-1.385.677-2.782.94-4.189.217-1.203.338-2.2.338-2.904l.005-.787c.014-2.742-.06-4.072-.446-6.108l-.246-1.293 1.295.24c.603.113 1.37.21 2.221.29.462.044.892.077 1.21.098l1.255-6.277c-.416-.21-.834-.415-1.254-.616zm-5.36 21.708a.252.252 0 0 0-.002.008l.002-.008zm-5.325 5.33a.236.236 0 0 0-.01.04l.01-.04zM8.43 26.736l.014.051a.233.233 0 0 0-.019-.048l.005-.003zm3.748-24.94a.232.232 0 0 0 .022.003l-.022-.002v-.001z" fill="#252525" fill-rule="nonzero"/></g></svg>