<svg viewBox="0 -14 38 48" xmlns="http://www.w3.org/2000/svg"><g fill="none" fill-rule="evenodd"><path d="M0-13h38v48H0z"/><path d="M5.924 1C3.969 1 1 5.916 1 17.298c.127 2.442 1.368 3.642 3.725 3.599h29.286c1.951-.349 2.927-1.549 2.927-3.599-.546-3.426-3.659-6.276-9.34-8.551l-7.56-6.412c-4.17.808-6.925 1.078-8.266.81C9.759 2.74 8.506 1 5.924 1z" fill="#F2F2F2" fill-rule="nonzero"/><path d="M18.384 3.437c-3.332.58-5.603.748-6.89.49-.743-.15-1.352-.415-2.255-.92l-.374-.21c-1.312-.74-2.01-.997-3.041-.997-.568 0-1.545 1.128-2.351 3.295C2.416 7.933 1.8 12.047 1.799 17.152c.102 1.964.945 2.78 2.826 2.745h29.203c1.441-.28 2.09-1.082 2.11-2.628-.519-3.019-3.398-5.634-8.775-7.787l-.135-.054-.14-.119a.908.908 0 0 1-.089.088c-8.124 7.022-13.938 7.497-17.979 1.335l-.495-.756 10.06-6.54-.001.001zm2.317.625a.906.906 0 0 1-.12.094l-9.733 6.327c3.257 4.248 7.7 3.63 14.657-2.347L20.7 4.062h.001zm17.026 12.995l.01.141c0 2.481-1.282 4.058-3.668 4.485l-.158.014H4.64C1.792 21.749.153 20.165 0 17.198 0 6.88 2.56 0 5.824 0c1.418 0 2.364.35 3.925 1.23l.367.206c.753.42 1.216.622 1.733.726 1.186.238 3.865-.025 7.917-.81l.424-.083 7.78 6.597c5.858 2.373 9.156 5.417 9.757 9.19v.001z" fill="#252525" fill-rule="nonzero"/></g></svg>