<svg viewBox="0 -7 24 48" xmlns="http://www.w3.org/2000/svg"><g fill="none" fill-rule="evenodd"><path d="M0-7h25v48H0z"/><path d="M11.814 33h8.949C21.998 33 23 32 23 30.767v-2.976c0-4.148-4.347-7.84-4.475-12.651-.127-4.812 2.983-11.907 2.983-11.907L17.034 1c0 1.766-4.911 3.698-4.849 3.698M11.821 33H3.237C2.002 33 1 32 1 30.767v-2.976c0-4.148 4.347-7.84 4.475-12.651.127-4.812-2.983-11.907-2.983-11.907L6.966 1c0 1.766 5.283 3.717 5.22 3.717" fill="#F2F2F2" fill-rule="nonzero"/><path d="M13.062 5.154c.062-.219.103-.362.108-.483V4.7c0 .31-.14.588-.358.771a7.39 7.39 0 0 0 .25-.317zm.094-.627c.008.047.012.095.014.144a.505.505 0 0 0-.014-.144zm-.443-.672c-.293-.121-.367-.152-.443-.157.448.044.81.387.886.83-.042-.166-.174-.333-.443-.673zm-.443-.157a.84.84 0 0 0-.084.002c.028 0 .056 0 .084.003v-.005zM12.186 5.7c-.138.006-.138.006-.529-.157-.529-.668-.529-.668-.349-1.298.273-.355.273-.355.344-.386.083-.05.083-.05.11-.064.041-.02.041-.02.072-.033l.155-.068c.19-.084.346-.153.53-.238.561-.26 1.103-.534 1.607-.826 1.051-.608 1.761-1.203 1.916-1.585.015-.784.778-1.267 1.433-.942l4.48 2.233c.476.237.682.814.466 1.305l-.121.286c-.493 1.19-.94 2.4-1.338 3.626a35.993 35.993 0 0 0-1.071 4.002c-.269 1.343-.4 2.543-.372 3.558.047 1.781.616 3.248 2.118 6.03.866 1.603 1.055 1.966 1.388 2.708.642 1.432.975 2.678.975 3.94v2.977A3.229 3.229 0 0 1 20.775 34h-8.962a.992.992 0 0 1-.984-1c0-.552.44-1 .984-1h8.962c.698 0 1.256-.556 1.256-1.232V27.79c0-.935-.262-1.918-.797-3.11-.305-.679-.485-1.025-1.323-2.577-1.648-3.05-2.302-4.738-2.36-6.937-.032-1.185.114-2.53.41-4.01a38.1 38.1 0 0 1 1.13-4.23c.352-1.083.74-2.154 1.163-3.211l-2.7-1.346c-.488.703-1.328 1.347-2.454 1.998a21.76 21.76 0 0 1-1.766.908 29.23 29.23 0 0 1-.565.254l-.126.056a.968.968 0 0 1-.457.114V5.7zM3.86 4.002c.357.91.715 1.896 1.049 2.925a38.1 38.1 0 0 1 1.13 4.23c.296 1.48.442 2.825.41 4.01-.058 2.2-.712 3.887-2.36 6.937-.838 1.552-1.018 1.898-1.323 2.576-.535 1.193-.797 2.176-.797 3.11v2.978c0 .676.558 1.232 1.256 1.232h8.596c.544 0 .984.448.984 1s-.44 1-.984 1H3.225A3.229 3.229 0 0 1 0 30.768V27.79c0-1.262.333-2.508.975-3.94.333-.742.522-1.105 1.388-2.709 1.502-2.781 2.07-4.248 2.118-6.029.027-1.015-.103-2.215-.372-3.558a35.993 35.993 0 0 0-1.07-4.002A49.653 49.653 0 0 0 1.7 3.927l-.12-.287a1.007 1.007 0 0 1 .466-1.305L6.525.103c.655-.325 1.418.158 1.418.898.201.422.97 1.019 2.093 1.626.546.295 1.132.573 1.737.835.2.086.371.158.573.24l.165.069.07.03c.026.011.026.011.099.051.06.025.06.025.315.294.273.52.273.52-.227 1.38-.443.203-.443.203-.581.192-.15 0-.3-.034-.434-.101l-.144-.06a32.36 32.36 0 0 1-.607-.255 24.07 24.07 0 0 1-1.892-.91c-1.223-.662-2.129-1.314-2.648-2.03L3.746 3.717l.114.286v-.001zm7.393 1.035c.031.072.074.153.127.253.132.14.196.207.234.242a1.001 1.001 0 0 1-.36-.495h-.001zm-.05-.318a1 1 0 0 1 .673-.95c.063-.01-.048.04-.27.142-.251.433-.376.648-.404.82V4.72l.001-.001zM5.24 15.585a.504.504 0 0 1 .074-.92c.125-.04.26-.03.377.031.082.043.248.122.49.226.406.176.871.352 1.386.517 2.912.931 5.961 1.094 8.795.01a10.74 10.74 0 0 0 1.555-.743.488.488 0 0 1 .672.186.504.504 0 0 1-.184.682 11.64 11.64 0 0 1-1.696.81c-3.071 1.175-6.335 1.001-9.438.009-.5-.16-.993-.343-1.476-.55a8.937 8.937 0 0 1-.555-.258z" fill="#252525" fill-rule="nonzero"/></g></svg>