<svg xmlns="http://www.w3.org/2000/svg" width="134" height="102"><g fill="none" fill-rule="evenodd" transform="translate(0 1)"><g fill-rule="nonzero"><path fill="#F2F2F2" d="M6 64.4v7.4l61.7-.1h61.7v-7.4l-61.7.1H6"/><path fill="#252525" d="M67.7 65.4h-51c-.5522847 0-1-.4477153-1-1s.4477153-1 1-1l50.9983793.0000013 61.6999997-.1C129.951296 63.2991052 130.4 63.7470822 130.4 64.3v7.4c0 .5522847-.447715 1-1 1s-1-.4477153-1-1v-6.398378L67.7 65.4z"/><path fill="#252525" d="M7 70.7968897L38.2 70.7l29.4981516.0000017 54.1000004-.1c.552283-.0010208 1.000825.4458661 1.001846.9981499.001021.5522838-.445866 1.0008258-.99815 1.0018467L67.7 72.7l-29.4968944-.0000048-32.20000002.1C5.4496103 72.8017141 5 72.3534979 5 71.8v-7.4c0-.5522847.44771525-1 1-1s1 .4477153 1 1v6.3968897z"/><path fill="#FFF" d="M33.7 46C26 49.9 18.3 53 13 55.9.3 62.8 6 71.8 6 71.8l61.7-32.9 29.4 15.6.9.5 1.1.6 30.3 16.1s5.7-8.9-7-15.8-38.1-15-47.4-30.7H60.2C55.4 33.3 46.4 39.4 37 44.3"/><path fill="#252525" d="M60.7636341 26.1c-4.4466811 7.1970409-12.196891 13.1982373-23.3013905 18.986753-.4897402.2552901-1.0937065.0652307-1.3489966-.4245094-.2552901-.4897402-.0652307-1.0937065.4245094-1.3489966 11.0546029-5.7625057 18.6390587-11.6981668 22.8019521-18.7230494C59.5197765 24.2863328 59.8467886 24.1 60.2 24.1H75c.3532737 0 .6803338.186398.8603805.4903478 4.4318873 7.4817882 12.6603515 13.6088997 25.2486526 19.9392882 3.3626579 1.6910093 18.5930849 8.6665246 21.7683639 10.3916764 2.314667 1.2575749 4.149036 2.6391681 5.536108 4.1304656 3.508693 3.7723407 3.944824 7.8531917 2.560697 11.5495376-.265683.7095125-.536776 1.2330228-.732102 1.5380066-.280515.437997-.849954.5878284-1.30971.3446124l-29.3000005-15.5c-.4881836-.2582541-.6745783-.8633615-.4163241-1.3515451.2582541-.4881836.8633615-.6745783 1.3515451-.4163241L128.96685 70.2395541c.044037-.1053374.089076-.2186634.13436-.3395957 1.138442-3.0402385.787315-6.3257082-2.152168-9.4860685-1.232676-1.3253004-2.894342-2.576819-5.026439-3.7352023-3.102477-1.6855977-18.2924493-8.642585-21.7121097-10.3622594C87.5754578 39.9625379 79.1716087 33.7683217 74.4362276 26.1H60.7636341z"/><path fill="#252525" d="M6.47051401 72.6823925c-.46178658.2462363-1.0353218.0947827-1.31533309-.3473404-.19474445-.3074913-.46530214-.8355485-.73052296-1.5509323-1.36381428-3.6786351-.95777513-7.7339162 2.43815723-11.4883832 1.40093132-1.5488384 3.27554265-2.979047 5.65717339-4.2729988C15.4837718 53.4010451 29.9339497 46.786527 33.7 45l-.4518419.107902c.4926922-.2495454 1.0943946-.052436 1.3439399.4402561.2495454.4926922.052436 1.0943946-.892098 1.4518419l.4518419-.107902c-3.3745346 1.7091799-17.7843507 8.3052225-20.6744447 9.8865896-2.19387775 1.1919493-3.88910336 2.4852981-5.13132052 3.8586657-2.84284086 3.1429814-3.17076383 6.4180839-2.04614657 9.4515296.04446264.1199297.08995822.2351242.13605458.3453566L67.229486 38.0176075c.2934418-.1564706.6454699-.1568291.9392298-.0009565l29.4 15.6c.4878602.2588646.6734978.8642046.4146332 1.3520648-.2588646.4878602-.8642046.6734978-1.3520648.4146332L67.7011535 40.0326674 6.47051401 72.6823925zM68.7 25.1c0 .5522847-.4477153 1-1 1s-1-.4477153-1-1v-7.5c0-.5522847.4477153-1 1-1 4.1477153 0 7.5-3.3522847 7.5-7.5 0-4.14771525-3.3522847-7.5-7.5-7.5s-7.5 3.35228475-7.5 7.5c0 .55228475-.4477153 1-1 1s-1-.44771525-1-1c0-5.25228475 4.2477153-9.5 9.5-9.5s9.5 4.24771525 9.5 9.5c0 4.9145092-3.71894 8.9495023-8.5 9.4481594V25.1z"/><path fill="#F2F2F2" d="M62 28.9h11v6.5H62z"/></g><ellipse cx="67" cy="96.5" fill="#EDEDED" rx="67" ry="4.5"/></g></svg>