<svg xmlns="http://www.w3.org/2000/svg" xmlns:xlink="http://www.w3.org/1999/xlink" width="28" height="26" viewBox="0 0 28 26"><defs><path id="hp1sa" d="M292.652 928.337c-1.027 1.773.253 4 2.306 4h20.08c2.054 0 3.334-2.227 2.307-4l-10.04-17.347c-1.027-1.773-3.587-1.773-4.613 0z"/><path id="hp1sb" d="M303.67 917.673v4c0 .734.6 1.334 1.333 1.334.734 0 1.334-.6 1.334-1.334v-4c0-.733-.6-1.333-1.334-1.333-.733 0-1.333.6-1.333 1.333z"/><path id="hp1sc" d="M303.67 925.67h2.667v2.667h-2.667z"/></defs><g><g transform="translate(-291 -908)"><g/><g><g><use fill="#fff" fill-opacity="0" stroke="#ea4c89" stroke-miterlimit="50" stroke-width="2" xlink:href="#hp1sa"/></g><g><use fill="#ea4c89" xlink:href="#hp1sb"/></g><g><use fill="#ea4c89" xlink:href="#hp1sc"/></g></g></g></g></svg>